<?xml version="1.0" encoding="utf-8"?>
<!-- Generator: Adobe Illustrator 24.0.0, SVG Export Plug-In . SVG Version: 6.00 Build 0)  -->
<svg version="1.1" id="Layer_1" xmlns="http://www.w3.org/2000/svg" xmlns:xlink="http://www.w3.org/1999/xlink" x="0px" y="0px"
	 viewBox="0 0 786.24 298.08" style="enable-background:new 0 0 786.24 298.08;" xml:space="preserve">
<style type="text/css">
	.st0{fill:#020202;}
	.st1{fill:#A436EF;}
</style>
<g>
	<path class="st0" d="M479.41,115.53c14.02-14.41,29.85-18.29,47.84-13.77c8.02,2.02,14.58,6.54,19.11,13.48
		c1.96,3,2.91,3.16,5.55,0.56c15.36-15.14,34.06-18.73,54.38-13.93c17.1,4.04,28.66,19.67,30.47,39.55
		c1.48,16.27,0.45,32.58,0.66,48.87c0.15,12.14-0.14,24.29,0.13,36.43c0.08,3.86-1.12,4.77-4.79,4.62
		c-7.15-0.29-14.32-0.31-21.47,0.01c-3.72,0.16-4.71-0.83-4.68-4.62c0.19-23.45,0.08-46.91,0.11-70.36c0-4.19-0.47-8.28-1.63-12.31
		c-2.57-8.88-7.93-15.02-17.37-16.38c-10.25-1.48-18.72,1.94-24.57,10.73c-3.9,5.86-5.14,12.52-5.14,19.46
		c0,22.95-0.08,45.91,0.08,68.86c0.03,3.57-0.57,4.95-4.54,4.73c-6.8-0.39-13.66-0.37-20.47-0.01c-4.21,0.22-5.59-0.68-5.53-5.3
		c0.29-22.62,0.16-45.24,0.1-67.86c-0.01-3.48-0.26-6.99-0.78-10.42c-1.76-11.51-9.03-19.25-18.82-20.28
		c-11.73-1.23-21.42,4.51-25.87,15.32c-2.26,5.49-2.77,11.25-2.77,17.1c0.01,22.12-0.13,44.25,0.11,66.37
		c0.05,4.31-1.24,5.26-5.28,5.08c-7.31-0.34-14.65-0.2-21.97-0.04c-2.55,0.06-3.4-0.56-3.4-3.27c0.09-40.75,0.08-81.51,0.01-122.26
		c0-2.55,0.59-3.42,3.27-3.36c7.82,0.18,15.65,0.22,23.47-0.01c3.14-0.09,4.13,0.87,3.84,3.92
		C479.21,109.05,479.41,111.7,479.41,115.53z"/>
	<path class="st0" d="M257.19,219.76c-24.61,20.46-65.6,19.13-88.53-6.12c-21.6-23.77-23.01-64.41-2.72-90.07
		c21.3-26.94,61.36-32.11,91.25-9.99c0-8.95,0-17.5,0-26.05c0-10.14,0.12-20.29-0.07-30.42c-0.06-3.04,0.73-4.02,3.86-3.94
		c7.82,0.22,15.64,0.18,23.46,0.01c2.8-0.06,3.65,0.74,3.65,3.62c-0.08,57.03-0.08,114.05,0,171.08c0,2.94-0.99,3.58-3.7,3.53
		c-7.82-0.16-15.65-0.22-23.46,0.03c-3.22,0.1-4.08-0.99-3.78-3.96C257.37,225.22,257.19,222.92,257.19,219.76z M259.41,166.71
		c-0.06-22.46-16.97-39.15-39.6-39.09c-21.81,0.06-37.73,16.49-37.77,39c-0.05,22.99,16.15,39.82,38.19,39.67
		C242.62,206.14,259.47,189.12,259.41,166.71z"/>
	<path class="st0" d="M383.3,176.04c-14.98,0-29.97,0.2-44.94-0.12c-4.72-0.1-5.06,1.65-4.26,5.41
		c2.86,13.42,14.31,23.79,28.77,26.15c14.57,2.38,27.78-0.52,39.31-9.85c2.07-1.67,3.45-1.15,5.26-0.08
		c5.58,3.27,11.08,6.71,16.83,9.64c3.36,1.71,2.43,2.95,0.49,4.91c-17.2,17.35-38.13,24.07-62.18,21.8
		c-20.23-1.9-37.01-10.2-48.82-27.16c-26.55-38.11-6.71-94.49,37.53-105.44c32.49-8.04,62.03,3.21,76.74,33.47
		c5.94,12.22,6.54,25.23,5.83,38.47c-0.19,3.57-2.59,2.79-4.6,2.79C413.92,176.05,398.61,176.04,383.3,176.04z M368.37,152.05
		c8.49,0,16.97,0.07,25.46-0.04c2.94-0.04,7.44,1.41,8.46-0.77c1.46-3.11-0.72-7.05-2.65-10.19c-1.29-2.1-2.86-4.1-4.6-5.85
		c-11.77-11.72-30.57-13.61-45.53-4.67c-6.93,4.14-12.11,9.67-14.54,17.58c-0.91,2.97-0.51,4.08,2.95,4.01
		C348.06,151.92,358.22,152.05,368.37,152.05z"/>
	<path class="st0" d="M709.48,196.37c4.36-10.58,8.31-20.19,12.27-29.79c8.27-20.05,16.61-40.08,24.72-60.2
		c1.19-2.95,2.56-3.96,5.72-3.88c8.96,0.22,17.92,0.08,27.41,0.08c-6.79,15.96-13.39,31.47-20,46.97
		c-15.53,36.4-31.06,72.8-46.63,109.18c-2.42,5.66-5.69,10.86-9.34,15.81c-8.51,11.54-19.91,17.22-34.32,16.78
		c-4.15-0.13-9.6,1.39-12.09-0.68c-2.61-2.17-0.62-7.82-0.78-11.94c-0.13-3.49,0.24-7.01-0.1-10.47c-0.37-3.7,1.14-4.66,4.48-4.2
		c14.17,1.99,21.39-5.78,27.06-17.65c4.42-9.26,4.42-16.92,0.35-26.48c-15.87-37.34-30.73-75.11-45.96-112.72
		c-0.55-1.35-1.04-2.71-1.76-4.6c10.05,0,19.64,0.09,29.24-0.06c2.98-0.05,2.99,2.22,3.67,3.89c11.15,27.73,22.24,55.49,33.34,83.25
		C707.48,191.52,708.25,193.36,709.48,196.37z"/>
	<path class="st0" d="M136.41,146.8c0,12.3,0.38,24.62-0.08,36.91c-0.98,26.38-17.8,45.16-44,49.53
		c-13.47,2.24-26.81,1.95-39.86-2.68c-20.4-7.23-33.37-23.63-33.89-45.22c-0.64-26.59-0.17-53.21-0.29-79.82
		c-0.01-2.5,0.83-3.02,3.13-2.98c7.99,0.13,15.99,0.24,23.97-0.04c3.42-0.12,4.02,1.06,4,4.17c-0.12,23.78-0.2,47.56-0.03,71.34
		c0.17,22.59,22.58,35.57,42.41,24.61c9.85-5.45,13.78-14.38,13.78-25.3c0.01-19.29,0-38.58,0-57.87c0-4.32,0.19-8.66-0.06-12.97
		c-0.17-3.01,0.65-4.06,3.82-3.96c7.82,0.23,15.65,0.24,23.46-0.01c3.15-0.1,3.87,0.85,3.84,3.89c-0.17,13.47-0.07,26.94-0.07,40.41
		C136.5,146.8,136.46,146.8,136.41,146.8z"/>
	<path class="st1" d="M18.36,73.81c0-11.02,0.04-21.15-0.03-31.28c-0.01-1.89,0.63-2.98,2.3-3.94C38.92,28.1,57.18,17.54,75.41,6.94
		c1.71-0.99,2.96-0.64,4.53,0.27c17.96,10.4,35.95,20.77,53.97,31.07c2.02,1.16,2.64,2.63,2.61,4.85
		c-0.09,8.64-0.18,17.28,0.02,25.92c0.1,4.52-1.37,4.13-4.52,2.29c-16.49-9.62-33.13-18.99-49.59-28.67c-3.58-2.1-6.27-2.17-9.93,0
		c-16.28,9.66-32.76,18.98-49.17,28.42C21.94,71.89,20.5,72.64,18.36,73.81z"/>
</g>
</svg>
